<svg xmlns="http://www.w3.org/2000/svg" xmlns:xlink="http://www.w3.org/1999/xlink" width="313" height="251" viewBox="0 0 313 251"><defs><clipPath id="b"><rect width="313" height="251"/></clipPath></defs><g id="a" clip-path="url(#b)"><g transform="translate(-128 -181)"><path d="M65.368-.552V-54.016a24.434,24.434,0,0,0-2.691-11.222,24.93,24.93,0,0,0-7.19-8.541,24.492,24.492,0,0,0-14.48-4.935s-.229,0-.342,0a24.485,24.485,0,0,0-14.822,4.94,24.915,24.915,0,0,0-7.19,8.539,24.436,24.436,0,0,0-2.69,11.222,24.554,24.554,0,0,0,1.44,8.329q-.913.57-1.783,1.222a24.915,24.915,0,0,0-7.19,8.539A24.435,24.435,0,0,0,5.74-24.7,24.438,24.438,0,0,0,8.43-13.481,24.925,24.925,0,0,0,15.62-4.94,24.484,24.484,0,0,0,30.1,0h0q.172,0,.345,0a24.935,24.935,0,0,0,15.09-5.028,25.381,25.381,0,0,0,7.32-8.7,24.872,24.872,0,0,0,2.188-6.146V0H69V-.552ZM55.045-34.61v9.5a24.332,24.332,0,0,1-2.679,11.139,24.826,24.826,0,0,1-7.16,8.505A24.387,24.387,0,0,1,30.448-.551q-.167,0-.334,0h0a14.267,14.267,0,0,1-8.3-2.873,14.312,14.312,0,0,1-5.748-11.126c0-.128-.005-.256-.005-.384s0-.256.006-.392V-34.083c0-.128-.005-.256-.005-.384s0-.256.006-.384A14.307,14.307,0,0,1,21.81-45.976a14.268,14.268,0,0,1,8.3-2.873l10.554.008a14.808,14.808,0,0,0,8.963-2.988,14.864,14.864,0,0,0,5.417-7.888V-34.61Zm0-28.781A14.305,14.305,0,0,1,49.3-52.27a14.26,14.26,0,0,1-8.632,2.877h0L30.107-49.4h0a24.475,24.475,0,0,0-12.22,3.422,24.009,24.009,0,0,1-1.368-8.037,23.891,23.891,0,0,1,2.63-10.971,24.361,24.361,0,0,1,7.03-8.349,23.938,23.938,0,0,1,14.491-4.83q.164,0,.328,0h0a14.268,14.268,0,0,1,8.3,2.873,14.313,14.313,0,0,1,5.748,11.124ZM94.572-.552v-117.4L80.524-111.63l.226.5,3.5-1.575V-.552H80.617V0H98.2V-.552ZM238.239-71.717h0l.006-.01c2.483-3.972,7.333-6.438,12.661-6.438v-.551H233.319v.551h8.3L222.177-47.172s-1.4,2.212-2.107,3.289L198.643-78.166h3.411v-.552H184.467v.552h3.755l26.307,42.091c-9.944,12.993-21.219,22.53-33.636,28.428a73.437,73.437,0,0,1-32.208,7.1h0a28.881,28.881,0,0,1-20.124-8.482,28.874,28.874,0,0,1-8.523-20.1V-49.3h66.349l-.094-.348a39.481,39.481,0,0,0-8.48-15.739,39.214,39.214,0,0,0-12.887-9.65,38.977,38.977,0,0,0-15.847-3.669l-.4,0a39.015,39.015,0,0,0-16.239,3.674,39.215,39.215,0,0,0-12.887,9.65,39.308,39.308,0,0,0-9.84,26.033,39.308,39.308,0,0,0,9.84,26.033,39.217,39.217,0,0,0,12.887,9.649A39.016,39.016,0,0,0,148.682,0c.131,0,.39,0,.39,0A73.909,73.909,0,0,0,181.13-7.15c12.444-5.911,23.744-15.447,33.711-28.426L236.73-.552h-3.411V0h17.587V-.552h-3.755l-26.76-42.816q1.14-1.723,2.253-3.511l15.581-24.845ZM120.047-49.853a28.871,28.871,0,0,1,8.515-19.825,28.881,28.881,0,0,1,20.127-8.482h0a28.88,28.88,0,0,1,20.118,8.482,28.871,28.871,0,0,1,8.515,19.825Z" transform="translate(123 300)" fill="#1e1e20"/><path d="M65.368-.552V-54.016a24.434,24.434,0,0,0-2.691-11.222,24.93,24.93,0,0,0-7.19-8.541,24.492,24.492,0,0,0-14.48-4.935s-.229,0-.342,0a24.485,24.485,0,0,0-14.822,4.94,24.915,24.915,0,0,0-7.19,8.539,24.436,24.436,0,0,0-2.69,11.222,24.554,24.554,0,0,0,1.44,8.329q-.913.57-1.783,1.222a24.915,24.915,0,0,0-7.19,8.539A24.435,24.435,0,0,0,5.74-24.7,24.438,24.438,0,0,0,8.43-13.481,24.925,24.925,0,0,0,15.62-4.94,24.484,24.484,0,0,0,30.1,0h0q.172,0,.345,0a24.935,24.935,0,0,0,15.09-5.028,25.381,25.381,0,0,0,7.32-8.7,24.872,24.872,0,0,0,2.188-6.146V0H69V-.552ZM55.045-34.61v9.5a24.332,24.332,0,0,1-2.679,11.139,24.826,24.826,0,0,1-7.16,8.505A24.387,24.387,0,0,1,30.448-.551q-.167,0-.334,0h0a14.267,14.267,0,0,1-8.3-2.873,14.312,14.312,0,0,1-5.748-11.126c0-.128-.005-.256-.005-.384s0-.256.006-.392V-34.083c0-.128-.005-.256-.005-.384s0-.256.006-.384A14.307,14.307,0,0,1,21.81-45.976a14.268,14.268,0,0,1,8.3-2.873l10.554.008a14.808,14.808,0,0,0,8.963-2.988,14.864,14.864,0,0,0,5.417-7.888V-34.61Zm0-28.781A14.305,14.305,0,0,1,49.3-52.27a14.26,14.26,0,0,1-8.632,2.877h0L30.107-49.4h0a24.475,24.475,0,0,0-12.22,3.422,24.009,24.009,0,0,1-1.368-8.037,23.891,23.891,0,0,1,2.63-10.971,24.361,24.361,0,0,1,7.03-8.349,23.938,23.938,0,0,1,14.491-4.83q.164,0,.328,0h0a14.268,14.268,0,0,1,8.3,2.873,14.313,14.313,0,0,1,5.748,11.124Z" transform="translate(371 300)" fill="#1e1e20"/><path d="M22.248-.551V-78.869L8.2-72.547l.226.5,3.5-1.576V-.551H8.293V0H25.881V-.551ZM17.087-92.817a5.161,5.161,0,0,0,5.161-5.161,5.16,5.16,0,0,0-5.161-5.161,5.16,5.16,0,0,0-5.161,5.161A5.161,5.161,0,0,0,17.087-92.817ZM88.852-29.488a24.229,24.229,0,0,0-4.528-9.879,25.9,25.9,0,0,0-2.3-2.623c-2.649-2.637-7.227-5.1-10.925-6.945L61.07-53.749l-.019-.009C52.619-57.834,44.7-62.24,43.883-66.837a5.139,5.139,0,0,1,1.738-4.581c.057-.058.113-.116.171-.173a23.8,23.8,0,0,1,16-6.564,27.573,27.573,0,0,1,16.749,4.764c.211.148.434.312.683.5a24.4,24.4,0,0,1,2.412,2.105A23.9,23.9,0,0,1,88.7-54.466l.551-.008V-78.452H88.7a5.9,5.9,0,0,1-6.044,6.021,5.8,5.8,0,0,1-3.109-.907c-.25-.19-.475-.356-.687-.5a28.127,28.127,0,0,0-17.088-4.864A24.344,24.344,0,0,0,45.4-71.982l-.163.165-.014.014h0a18.638,18.638,0,0,0-4.457,6.986,13.4,13.4,0,0,0-.425,8.4,10.773,10.773,0,0,0,5.629,6.8S77.287-34.585,77.8-34.3a16.905,16.905,0,0,1,3.831,2.865A16.732,16.732,0,0,1,86.59-19.745a16.724,16.724,0,0,1-4.614,11.8s-.253.262-.344.353A24.186,24.186,0,0,1,66.247-.61,24.218,24.218,0,0,1,50.209-5.249l-.018-.014c-.264-.195-.522-.393-.768-.591a24.451,24.451,0,0,1-1.947-1.742,23.836,23.836,0,0,1-7.073-17h-.552V-.276H40.4a5.876,5.876,0,0,1,5.712-6.016,5.492,5.492,0,0,1,2.978.881c.243.194.5.39.756.582l.042.032A24.75,24.75,0,0,0,64.557,0q.862,0,1.728-.06A24.737,24.737,0,0,0,82.022-7.2q.18-.179.353-.362l0,0a24.464,24.464,0,0,0,6.476-21.921ZM160.488-.552V-54.016A24.435,24.435,0,0,0,157.8-65.238a24.93,24.93,0,0,0-7.19-8.541,24.492,24.492,0,0,0-14.48-4.935s-.229,0-.342,0a24.485,24.485,0,0,0-14.822,4.94,24.915,24.915,0,0,0-7.19,8.539,24.436,24.436,0,0,0-2.69,11.222,24.554,24.554,0,0,0,1.44,8.329q-.913.57-1.783,1.222a24.915,24.915,0,0,0-7.19,8.539A24.435,24.435,0,0,0,100.86-24.7a24.438,24.438,0,0,0,2.69,11.222,24.925,24.925,0,0,0,7.19,8.541A24.484,24.484,0,0,0,125.223,0h0q.172,0,.345,0a24.935,24.935,0,0,0,15.09-5.028,25.381,25.381,0,0,0,7.32-8.7,24.872,24.872,0,0,0,2.188-6.146V0H164.12V-.552ZM150.165-34.61v9.5a24.331,24.331,0,0,1-2.679,11.139,24.825,24.825,0,0,1-7.16,8.505A24.387,24.387,0,0,1,125.568-.551q-.167,0-.334,0h0a14.267,14.267,0,0,1-8.3-2.873,14.312,14.312,0,0,1-5.748-11.126c0-.128-.005-.256-.005-.384s0-.256.006-.392V-34.083c0-.128-.005-.256-.005-.384s0-.256.006-.384a14.307,14.307,0,0,1,5.748-11.124,14.268,14.268,0,0,1,8.3-2.873l10.554.008a14.808,14.808,0,0,0,8.963-2.988,14.864,14.864,0,0,0,5.417-7.888V-34.61Zm0-28.781a14.305,14.305,0,0,1-5.748,11.12,14.26,14.26,0,0,1-8.632,2.877h0L125.227-49.4h0A24.475,24.475,0,0,0,113-45.979a24.009,24.009,0,0,1-1.368-8.037,23.891,23.891,0,0,1,2.63-10.971,24.361,24.361,0,0,1,7.03-8.349,23.938,23.938,0,0,1,14.491-4.83q.164,0,.328,0h0a14.268,14.268,0,0,1,8.3,2.873,14.313,14.313,0,0,1,5.748,11.124ZM238.425-.552,209.132-49.428h-9.076l39.035-29.289H228.014v.551c2.562,0,3.951.421,3.951,2.645a3.03,3.03,0,0,1-.838,2.09h0l-41.434,31.09v-75.609l-14.048,6.321.226.5,3.5-1.575V-.552h-3.632V0h17.587V-.552h-3.632v-41.1l9.44-7.084L228.011-.552h-3.421V0h17.587V-.552Zm58.543-28.937a24.229,24.229,0,0,0-4.528-9.879,25.9,25.9,0,0,0-2.3-2.623c-2.649-2.637-7.227-5.1-10.925-6.945l-10.028-4.815-.019-.009C260.735-57.834,252.819-62.24,252-66.837a5.139,5.139,0,0,1,1.738-4.581c.057-.058.113-.116.171-.173a23.8,23.8,0,0,1,16-6.564,27.573,27.573,0,0,1,16.749,4.764c.211.148.434.312.683.5a24.4,24.4,0,0,1,2.412,2.105,23.9,23.9,0,0,1,7.064,16.319l.551-.008V-78.452h-.552a5.9,5.9,0,0,1-6.044,6.021,5.8,5.8,0,0,1-3.109-.907c-.25-.19-.475-.356-.687-.5a28.127,28.127,0,0,0-17.088-4.864,24.344,24.344,0,0,0-16.364,6.725l-.163.165-.014.014h0a18.638,18.638,0,0,0-4.457,6.986,13.4,13.4,0,0,0-.425,8.4,10.773,10.773,0,0,0,5.629,6.8S285.4-34.585,285.917-34.3a16.9,16.9,0,0,1,3.831,2.865,16.732,16.732,0,0,1,4.958,11.693,16.724,16.724,0,0,1-4.614,11.8s-.253.262-.344.353A24.186,24.186,0,0,1,274.363-.61a24.218,24.218,0,0,1-16.038-4.639l-.018-.014c-.264-.195-.522-.393-.768-.591a24.452,24.452,0,0,1-1.947-1.742,23.836,23.836,0,0,1-7.073-17h-.551V-.276h.551a5.876,5.876,0,0,1,5.712-6.016,5.492,5.492,0,0,1,2.978.881c.243.194.5.39.756.582l.042.032A24.75,24.75,0,0,0,272.673,0q.862,0,1.728-.06A24.737,24.737,0,0,0,290.138-7.2q.18-.179.353-.362l0,0A24.464,24.464,0,0,0,296.968-29.488Z" transform="translate(134 431)" fill="#1e1e20"/></g></g></svg>